<svg xmlns="http://www.w3.org/2000/svg" width="117" height="25" fill="none"><path fill="#FFB547" d="M10.436 3.561c.62-1.328 2.509-1.328 3.128 0l1.439 3.088c.251.54.763.911 1.354.984l3.38.414c1.456.178 2.04 1.975.967 2.975l-2.492 2.322a1.73 1.73 0 0 0-.517 1.592l.651 3.344c.28 1.439-1.248 2.549-2.53 1.838l-2.98-1.652a1.73 1.73 0 0 0-1.673 0l-2.979 1.652c-1.282.711-2.81-.4-2.53-1.838l.65-3.344a1.73 1.73 0 0 0-.516-1.592l-2.492-2.322c-1.073-1-.489-2.797.966-2.975l3.381-.414a1.73 1.73 0 0 0 1.354-.984zM33.574 3.561c.619-1.328 2.508-1.328 3.127 0L38.14 6.65c.251.54.763.911 1.354.984l3.381.414c1.455.178 2.04 1.975.967 2.975l-2.492 2.322a1.73 1.73 0 0 0-.517 1.592l.65 3.344c.28 1.439-1.248 2.549-2.53 1.838l-2.979-1.652a1.73 1.73 0 0 0-1.673 0l-2.98 1.652c-1.281.711-2.81-.4-2.53-1.838l.651-3.344a1.73 1.73 0 0 0-.517-1.592l-2.492-2.322c-1.072-1-.488-2.797.966-2.975l3.382-.414a1.73 1.73 0 0 0 1.354-.984zM56.711 3.561c.62-1.328 2.508-1.328 3.128 0l1.438 3.088c.252.54.764.911 1.354.984l3.382.414c1.455.178 2.038 1.975.966 2.975l-2.492 2.322a1.73 1.73 0 0 0-.517 1.592l.65 3.344c.28 1.439-1.248 2.549-2.53 1.838l-2.978-1.652a1.73 1.73 0 0 0-1.674 0l-2.979 1.652c-1.282.711-2.81-.4-2.53-1.838l.65-3.344a1.73 1.73 0 0 0-.517-1.592l-2.492-2.322c-1.072-1-.488-2.797.967-2.975l3.381-.414a1.73 1.73 0 0 0 1.354-.984zM79.849 3.561c.619-1.328 2.508-1.328 3.127 0l1.439 3.088c.251.54.763.911 1.354.984l3.381.414c1.455.178 2.039 1.975.967 2.975l-2.493 2.322a1.73 1.73 0 0 0-.517 1.592l.651 3.344c.28 1.439-1.248 2.549-2.53 1.838l-2.979-1.652a1.73 1.73 0 0 0-1.674 0l-2.979 1.652c-1.282.711-2.81-.4-2.53-1.838l.651-3.344a1.73 1.73 0 0 0-.517-1.592l-2.492-2.322c-1.073-1-.489-2.797.966-2.975l3.382-.414a1.73 1.73 0 0 0 1.354-.984zM102.986 3.561c.619-1.328 2.508-1.328 3.127 0l1.439 3.088c.252.54.763.911 1.354.984l3.382.414c1.455.178 2.038 1.975.966 2.975l-2.492 2.322a1.73 1.73 0 0 0-.517 1.592l.651 3.344c.28 1.439-1.249 2.549-2.531 1.838l-2.979-1.652a1.72 1.72 0 0 0-1.673 0l-2.979 1.652c-1.282.711-2.81-.4-2.53-1.838l.65-3.344a1.73 1.73 0 0 0-.517-1.592l-2.492-2.322c-1.072-1-.488-2.797.967-2.975l3.381-.414a1.72 1.72 0 0 0 1.354-.984z"/></svg>