<svg width="25" height="25" viewBox="0 0 25 25" fill="none" xmlns="http://www.w3.org/2000/svg">
<g clip-path="url(#clip0_4782_427)">
<path d="M9.92224 0.955566C9.21949 0.955566 8.98474 1.11382 8.98474 1.89307V2.59582H6.87499C5.48974 2.59582 5.23474 2.85157 5.23474 4.23607V21.8146C5.23474 23.1998 5.49049 23.4548 6.87499 23.4548H18.125C19.5102 23.4548 19.7652 23.1991 19.7652 21.8146V4.23607C19.7652 2.85082 19.5095 2.59582 18.125 2.59582H16.0152V1.89307C16.0152 1.11457 15.7812 0.955566 15.0777 0.955566H9.92224ZM6.87499 5.87782C6.87499 4.00282 6.64099 4.23757 8.51524 4.23757C9.45274 4.23757 15.7812 4.23757 16.484 4.23757C18.359 4.23757 18.1242 4.00357 18.1242 5.87782C18.1242 6.81532 18.1242 19.2376 18.1242 20.1751C18.1242 22.0501 18.3582 21.8153 16.484 21.8153C15.5465 21.8153 9.45274 21.8153 8.51524 21.8153C6.64024 21.8153 6.87499 22.0493 6.87499 20.1751C6.87499 19.2368 6.87499 6.81532 6.87499 5.87782ZM8.04649 9.15907H16.9527C17.2115 9.15907 17.4215 9.36907 17.4215 9.62782V12.2063C17.4215 12.4651 17.2115 12.6751 16.9527 12.6751H8.04649C7.78774 12.6751 7.57774 12.4651 7.57774 12.2063V9.62782C7.57774 9.36907 7.78774 9.15907 8.04649 9.15907ZM8.04649 13.3778H16.9527C17.2115 13.3778 17.4215 13.5878 17.4215 13.8466V16.4251C17.4215 16.6838 17.2115 16.8938 16.9527 16.8938H8.04649C7.78774 16.8938 7.57774 16.6838 7.57774 16.4251V13.8466C7.57774 13.5878 7.78774 13.3778 8.04649 13.3778ZM8.04649 17.5966H16.9527C17.2115 17.5966 17.4215 17.8066 17.4215 18.0653V20.6438C17.4215 20.9026 17.2115 21.1126 16.9527 21.1126H8.04649C7.78774 21.1126 7.57774 20.9026 7.57774 20.6438V18.0653C7.57774 17.8066 7.78774 17.5966 8.04649 17.5966Z" fill="#4E4E4E"/>
</g>
<defs>
<clipPath id="clip0_4782_427">
<rect width="24" height="24" fill="white" transform="translate(0.5 0.205566)"/>
</clipPath>
</defs>
</svg>
