<svg width="57" height="57" viewBox="0 0 57 57" fill="none" xmlns="http://www.w3.org/2000/svg">
<rect x="0.166656" y="0.205566" width="56" height="56" rx="11" fill="#F6F6F6"/>
<path d="M37.6367 27.3905L36.6067 25.9605C36.3761 25.6367 36.0717 25.3726 35.7187 25.19C35.3656 25.0073 34.9741 24.9115 34.5767 24.9105H30.1967V22.7705C30.1967 22.1075 29.9333 21.4716 29.4644 21.0027C28.9956 20.5339 28.3597 20.2705 27.6967 20.2705H20.7267C20.0642 20.2724 19.4294 20.5363 18.9609 21.0048C18.4925 21.4732 18.2285 22.108 18.2267 22.7705V32.7105C18.2267 33.1083 18.3847 33.4899 18.666 33.7712C18.9473 34.0525 19.3288 34.2105 19.7267 34.2105H20.9467C21.0222 34.7455 21.2884 35.2353 21.6963 35.5897C22.1042 35.9441 22.6263 36.1392 23.1667 36.1392C23.707 36.1392 24.2291 35.9441 24.637 35.5897C25.0449 35.2353 25.3111 34.7455 25.3867 34.2105H30.9467C31.0222 34.7455 31.2884 35.2353 31.6963 35.5897C32.1042 35.9441 32.6263 36.1392 33.1667 36.1392C33.707 36.1392 34.2291 35.9441 34.637 35.5897C35.0449 35.2353 35.3111 34.7455 35.3867 34.2105H36.6067C37.0045 34.2105 37.386 34.0525 37.6673 33.7712C37.9486 33.4899 38.1067 33.1083 38.1067 32.7105V28.8405C38.1042 28.3201 37.94 27.8134 37.6367 27.3905ZM23.1667 35.1405C22.9194 35.1405 22.6778 35.0672 22.4722 34.9298C22.2666 34.7925 22.1064 34.5973 22.0118 34.3689C21.9172 34.1405 21.8924 33.8891 21.9407 33.6466C21.9889 33.4042 22.108 33.1814 22.2828 33.0066C22.4576 32.8318 22.6803 32.7128 22.9228 32.6645C23.1653 32.6163 23.4166 32.641 23.645 32.7357C23.8734 32.8303 24.0686 32.9905 24.206 33.196C24.3433 33.4016 24.4167 33.6433 24.4167 33.8905C24.4167 34.222 24.285 34.54 24.0505 34.7744C23.8161 35.0088 23.4982 35.1405 23.1667 35.1405ZM29.1967 33.2105H25.3167C25.1711 32.7546 24.8843 32.3568 24.4979 32.0746C24.1114 31.7923 23.6452 31.6402 23.1667 31.6402C22.6881 31.6402 22.2219 31.7923 21.8355 32.0746C21.449 32.3568 21.1623 32.7546 21.0167 33.2105H19.7267C19.594 33.2105 19.4669 33.1578 19.3731 33.0641C19.2793 32.9703 19.2267 32.8431 19.2267 32.7105V22.7705C19.2267 22.3727 19.3847 21.9912 19.666 21.7098C19.9473 21.4285 20.3288 21.2705 20.7267 21.2705H27.6967C28.0945 21.2705 28.476 21.4285 28.7573 21.7098C29.0386 21.9912 29.1967 22.3727 29.1967 22.7705V33.2105ZM33.1667 35.1405C32.9194 35.1405 32.6778 35.0672 32.4722 34.9298C32.2666 34.7925 32.1064 34.5973 32.0118 34.3689C31.9172 34.1405 31.8924 33.8891 31.9407 33.6466C31.9889 33.4042 32.108 33.1814 32.2828 33.0066C32.4576 32.8318 32.6803 32.7128 32.9228 32.6645C33.1653 32.6163 33.4166 32.641 33.645 32.7357C33.8734 32.8303 34.0686 32.9905 34.206 33.196C34.3433 33.4016 34.4167 33.6433 34.4167 33.8905C34.4167 34.222 34.285 34.54 34.0505 34.7744C33.8161 35.0088 33.4982 35.1405 33.1667 35.1405ZM37.1067 32.7105C37.1067 32.8431 37.054 32.9703 36.9602 33.0641C36.8664 33.1578 36.7393 33.2105 36.6067 33.2105H35.3167C35.1711 32.7546 34.8843 32.3568 34.4979 32.0746C34.1114 31.7923 33.6452 31.6402 33.1667 31.6402C32.6881 31.6402 32.2219 31.7923 31.8355 32.0746C31.449 32.3568 31.1623 32.7546 31.0167 33.2105H30.1967V25.9105H34.5767C34.8152 25.9121 35.0501 25.97 35.2621 26.0795C35.4741 26.1889 35.6572 26.3469 35.7967 26.5405L36.8267 27.9705C37.0066 28.2251 37.1043 28.5287 37.1067 28.8405V32.7105Z" fill="#797979"/>
<path d="M34.1956 28.4104H32.1956C32.063 28.4104 31.9359 28.3577 31.8421 28.264C31.7483 28.1702 31.6956 28.043 31.6956 27.9104C31.6956 27.7778 31.7483 27.6506 31.8421 27.5568C31.9359 27.4631 32.063 27.4104 32.1956 27.4104H34.1956C34.3283 27.4104 34.4554 27.4631 34.5492 27.5568C34.643 27.6506 34.6956 27.7778 34.6956 27.9104C34.6956 28.043 34.643 28.1702 34.5492 28.264C34.4554 28.3577 34.3283 28.4104 34.1956 28.4104Z" fill="#797979"/>
</svg>
