<svg width="24" height="25" viewBox="0 0 24 25" fill="none" xmlns="http://www.w3.org/2000/svg">
<path fill-rule="evenodd" clip-rule="evenodd" d="M14.2222 21.2056H9.77778C6.65675 21.2056 5.09624 21.2056 3.97524 20.4702C3.48995 20.1518 3.07328 19.7427 2.74902 19.2663C2 18.1657 2 16.6335 2 13.5692C2 10.505 2 8.97278 2.74902 7.87217C3.07328 7.39571 3.48995 6.98661 3.97524 6.66825C4.69555 6.1957 5.59733 6.0268 6.978 5.96643C7.63685 5.96643 8.20412 5.47625 8.33333 4.84193C8.52715 3.89046 9.37805 3.20557 10.3663 3.20557H13.6337C14.6219 3.20557 15.4728 3.89046 15.6667 4.84193C15.7959 5.47625 16.3631 5.96643 17.022 5.96643C18.4027 6.0268 19.3044 6.1957 20.0248 6.66825C20.51 6.98661 20.9267 7.39571 21.251 7.87217C22 8.97278 22 10.505 22 13.5692C22 16.6335 22 18.1657 21.251 19.2663C20.9267 19.7427 20.51 20.1518 20.0248 20.4702C18.9038 21.2056 17.3433 21.2056 14.2222 21.2056ZM15.2697 9.80518C15.2697 9.39097 14.9339 9.05518 14.5197 9.05518C14.1055 9.05518 13.7697 9.39097 13.7697 9.80518V9.94873C12.2996 9.20421 10.4581 9.44623 9.22951 10.6748C7.69954 12.2048 7.69954 14.6854 9.22951 16.2154C10.7595 17.7453 13.2401 17.7453 14.77 16.2154C15.421 15.5644 15.7957 14.7393 15.8923 13.89C15.9391 13.4784 15.6434 13.1068 15.2319 13.06C14.8203 13.0132 14.4487 13.3089 14.4019 13.7204C14.3422 14.2448 14.112 14.7521 13.7094 15.1547C12.7652 16.0989 11.2344 16.0989 10.2902 15.1547C9.34598 14.2105 9.34598 12.6797 10.2902 11.7355C10.9379 11.0878 11.8617 10.8844 12.6828 11.1254C12.3737 11.2693 12.1928 11.6117 12.2661 11.9598C12.3515 12.3651 12.7492 12.6245 13.1546 12.5391L14.6743 12.2191C15.0213 12.146 15.2697 11.8398 15.2697 11.4852V9.80518Z" fill="#4E4E4E"/>
</svg>
