<svg width="57" height="57" viewBox="0 0 57 57" fill="none" xmlns="http://www.w3.org/2000/svg">
<rect x="0.833313" y="0.205566" width="56" height="56" rx="11" fill="#F6F6F6"/>
<path d="M27.6233 31.3756C27.4233 31.3756 27.2333 31.2956 27.0933 31.1556L24.6733 28.7356C24.3833 28.4456 24.3833 27.9656 24.6733 27.6756C24.9633 27.3856 25.4433 27.3856 25.7333 27.6756L27.6233 29.5656L31.9233 25.2656C32.2133 24.9756 32.6933 24.9756 32.9833 25.2656C33.2733 25.5556 33.2733 26.0356 32.9833 26.3256L28.1533 31.1556C28.0133 31.2956 27.8233 31.3756 27.6233 31.3756Z" fill="#797979"/>
<path d="M28.8333 38.9556C28.2033 38.9556 27.5733 38.7456 27.0833 38.3256L25.5033 36.9656C25.3433 36.8256 24.9433 36.6856 24.7333 36.6856H23.0133C21.5333 36.6856 20.3333 35.4856 20.3333 34.0056V32.2956C20.3333 32.0856 20.1933 31.6956 20.0533 31.5356L18.7033 29.9456C17.8833 28.9756 17.8833 27.4456 18.7033 26.4756L20.0533 24.8856C20.1933 24.7256 20.3333 24.3356 20.3333 24.1256V22.4056C20.3333 20.9256 21.5333 19.7256 23.0133 19.7256H24.7433C24.9533 19.7256 25.3533 19.5756 25.5133 19.4456L27.0933 18.0856C28.0733 17.2456 29.6033 17.2456 30.5833 18.0856L32.1633 19.4456C32.3233 19.5856 32.7233 19.7256 32.9333 19.7256H34.6333C36.1133 19.7256 37.3133 20.9256 37.3133 22.4056V24.1056C37.3133 24.3156 37.4633 24.7156 37.6033 24.8756L38.9633 26.4556C39.8033 27.4356 39.8033 28.9656 38.9633 29.9456L37.6033 31.5256C37.4633 31.6856 37.3133 32.0856 37.3133 32.2956V33.9956C37.3133 35.4756 36.1133 36.6756 34.6333 36.6756H32.9333C32.7233 36.6756 32.3233 36.8256 32.1633 36.9556L30.5833 38.3156C30.0933 38.7456 29.4633 38.9556 28.8333 38.9556ZM23.0133 21.2256C22.3633 21.2256 21.8333 21.7556 21.8333 22.4056V24.1156C21.8333 24.6856 21.5633 25.4156 21.1933 25.8456L19.8433 27.4356C19.4933 27.8456 19.4933 28.5556 19.8433 28.9656L21.1933 30.5556C21.5633 30.9956 21.8333 31.7156 21.8333 32.2856V33.9956C21.8333 34.6456 22.3633 35.1756 23.0133 35.1756H24.7433C25.3233 35.1756 26.0533 35.4456 26.4933 35.8256L28.0733 37.1856C28.4833 37.5356 29.2033 37.5356 29.6133 37.1856L31.1933 35.8256C31.6333 35.4556 32.3633 35.1756 32.9433 35.1756H34.6433C35.2933 35.1756 35.8233 34.6456 35.8233 33.9956V32.2956C35.8233 31.7156 36.0933 30.9856 36.4733 30.5456L37.8333 28.9656C38.1833 28.5556 38.1833 27.8356 37.8333 27.4256L36.4733 25.8456C36.0933 25.4056 35.8233 24.6756 35.8233 24.0956V22.4056C35.8233 21.7556 35.2933 21.2256 34.6433 21.2256H32.9433C32.3633 21.2256 31.6333 20.9556 31.1933 20.5756L29.6133 19.2156C29.2033 18.8656 28.4833 18.8656 28.0733 19.2156L26.4933 20.5856C26.0533 20.9556 25.3133 21.2256 24.7433 21.2256H23.0133Z" fill="#797979"/>
</svg>
