<svg width="24" height="25" viewBox="0 0 24 25" fill="none" xmlns="http://www.w3.org/2000/svg">
<g clip-path="url(#clip0_4782_182)">
<path fill-rule="evenodd" clip-rule="evenodd" d="M6.6075 3.45582C5.76459 4.29873 5.76464 5.65529 5.76459 8.36855L5.76459 16.0426C5.76459 18.756 5.76459 20.1125 6.60754 20.9554C7.45041 21.7983 8.80699 21.7983 11.5202 21.7983L12.4795 21.7983C15.1927 21.7983 16.5493 21.7983 17.3922 20.9554C18.2351 20.1125 18.2351 18.7559 18.2351 16.0427L18.2351 8.36857C18.2351 5.65531 18.2351 4.29874 17.3922 3.45582C16.5493 2.61294 15.1927 2.61294 12.4795 2.61294L11.5202 2.61294C8.807 2.61294 7.45039 2.61294 6.6075 3.45582ZM14.3977 6.24115C14.8119 6.24115 15.1477 5.90536 15.1477 5.49115C15.1477 5.07694 14.8119 4.74115 14.3977 4.74115L9.60133 4.74114C9.18712 4.74115 8.85133 5.07694 8.85133 5.49114C8.85133 5.90537 9.18712 6.24115 9.60133 6.24114L14.3977 6.24115ZM11.9993 18.921C12.794 18.9209 13.4382 18.2767 13.4383 17.482C13.4383 16.6874 12.794 16.0431 11.9994 16.0431C11.2046 16.0432 10.5605 16.6874 10.5604 17.4821C10.5604 18.2767 11.2046 18.921 11.9993 18.921Z" fill="#4E4E4E"/>
</g>
<defs>
<clipPath id="clip0_4782_182">
<rect width="24" height="24" fill="white" transform="translate(0 0.205566)"/>
</clipPath>
</defs>
</svg>
