<svg width="57" height="57" viewBox="0 0 57 57" fill="none" xmlns="http://www.w3.org/2000/svg">
<rect x="0.5" y="0.205566" width="56" height="56" rx="11" fill="#F6F6F6"/>
<path fill-rule="evenodd" clip-rule="evenodd" d="M23.9353 17.4556H33.0647C33.6346 17.4555 34.1186 17.4555 34.5185 17.4969C34.9443 17.5409 35.3378 17.6365 35.7096 17.8663C36.0814 18.096 36.3429 18.4053 36.5727 18.7664C36.7885 19.1057 37.0049 19.5385 37.2598 20.0484L37.2763 20.0813C37.286 20.1007 37.2949 20.1206 37.3029 20.1408L38.7065 23.689C38.8735 24.1112 39.0586 24.6379 39.1127 25.1768C39.1681 25.7281 39.0921 26.3597 38.6601 26.9075C38.3068 27.3556 37.8155 27.6919 37.25 27.8519V37.4556H38.5C38.9142 37.4556 39.25 37.7914 39.25 38.2056C39.25 38.6198 38.9142 38.9556 38.5 38.9556H18.5C18.0858 38.9556 17.75 38.6198 17.75 38.2056C17.75 37.7914 18.0858 37.4556 18.5 37.4556H19.75V27.852C19.1845 27.6919 18.6931 27.3556 18.3397 26.9075C17.9078 26.3597 17.8318 25.7281 17.8872 25.1768C17.9413 24.6379 18.1264 24.1112 18.2934 23.689L19.697 20.1408C19.705 20.1206 19.7139 20.1007 19.7236 20.0813L19.7401 20.0483C19.995 19.5385 20.2114 19.1057 20.4272 18.7664C20.657 18.4053 20.9185 18.096 21.2903 17.8663C21.6621 17.6365 22.0556 17.5409 22.4814 17.4969C22.8813 17.4555 23.3653 17.4555 23.9353 17.4556ZM34.4999 27.0931C34.8359 27.4489 35.2658 27.7152 35.75 27.8521V37.4556H31.75V34.6734C31.75 34.2336 31.75 33.8542 31.7218 33.543C31.692 33.2138 31.6259 32.8878 31.4486 32.5806C31.2511 32.2386 30.967 31.9545 30.625 31.757C30.3178 31.5797 29.9918 31.5136 29.6627 31.4838C29.3514 31.4556 28.972 31.4556 28.5322 31.4556H28.4678C28.028 31.4556 27.6486 31.4556 27.3373 31.4838C27.0082 31.5136 26.6822 31.5797 26.375 31.757C26.033 31.9545 25.7489 32.2386 25.5514 32.5806C25.3741 32.8878 25.308 33.2138 25.2782 33.543C25.25 33.8542 25.25 34.2336 25.25 34.6733V37.4556H21.25V27.8521C21.7341 27.7151 22.164 27.4489 22.4999 27.0931C23.0013 27.6242 23.7119 27.9556 24.4999 27.9556C25.2879 27.9556 25.9985 27.6242 26.4999 27.0931C27.0013 27.6242 27.7119 27.9556 28.4999 27.9556C29.2879 27.9556 29.9985 27.6242 30.4999 27.0931C31.0013 27.6242 31.7119 27.9556 32.4999 27.9556C33.2879 27.9556 33.9985 27.6242 34.4999 27.0931ZM26.75 37.4556H30.25V34.7056C30.25 34.2245 30.2493 33.9138 30.2279 33.6783C30.2075 33.4532 30.1731 33.3715 30.1495 33.3306C30.0837 33.2166 29.989 33.1219 29.875 33.0561C29.8341 33.0325 29.7524 32.9981 29.5273 32.9777C29.2918 32.9563 28.9811 32.9556 28.5 32.9556C28.0189 32.9556 27.7082 32.9563 27.4727 32.9777C27.2476 32.9981 27.1659 33.0325 27.125 33.0561C27.011 33.1219 26.9163 33.2166 26.8505 33.3306C26.8269 33.3715 26.7925 33.4532 26.7721 33.6783C26.7507 33.9138 26.75 34.2245 26.75 34.7056V37.4556ZM23.2499 25.2056C23.2499 25.8959 23.8096 26.4556 24.4999 26.4556C25.1903 26.4556 25.7499 25.8959 25.7499 25.2056C25.7499 24.7914 26.0857 24.4556 26.4999 24.4556C26.9141 24.4556 27.2499 24.7914 27.2499 25.2056C27.2499 25.8959 27.8096 26.4556 28.4999 26.4556C29.1903 26.4556 29.7499 25.8959 29.7499 25.2056C29.7499 24.7914 30.0857 24.4556 30.4999 24.4556C30.9141 24.4556 31.2499 24.7914 31.2499 25.2056C31.2499 25.8959 31.8096 26.4556 32.4999 26.4556C33.1903 26.4556 33.7499 25.8959 33.7499 25.2056C33.7499 24.7914 34.0857 24.4556 34.4999 24.4556C34.9141 24.4556 35.2499 24.7914 35.2499 25.2056C35.2499 25.8959 35.8096 26.4556 36.4999 26.4556C36.8979 26.4556 37.2522 26.2705 37.4823 25.9786C37.5962 25.8342 37.6513 25.6365 37.6202 25.3267C37.5879 25.0046 37.469 24.6383 37.3117 24.2407L35.9201 20.723C35.6524 20.1876 35.4735 19.8331 35.3071 19.5717C35.1472 19.3203 35.0325 19.2112 34.921 19.1423C34.8095 19.0733 34.6606 19.0196 34.3642 18.9889C34.0505 18.9565 33.6446 18.9556 33.0278 18.9556H23.9721C23.3553 18.9556 22.9494 18.9565 22.6357 18.9889C22.3393 19.0196 22.1904 19.0733 22.0789 19.1423C21.9674 19.2112 21.8527 19.3203 21.6928 19.5717C21.5265 19.8331 21.3475 20.1876 21.0798 20.723L19.6882 24.2407C19.5309 24.6383 19.412 25.0046 19.3797 25.3267C19.3486 25.6365 19.4037 25.8342 19.5176 25.9786C19.7477 26.2705 20.102 26.4556 20.4999 26.4556C21.1903 26.4556 21.7499 25.8959 21.7499 25.2056C21.7499 24.7914 22.0857 24.4556 22.4999 24.4556C22.9141 24.4556 23.2499 24.7914 23.2499 25.2056Z" fill="#797979"/>
</svg>
